Coordinates
version=1
nRows=5
nColumns=40
inDegrees=yes

Units are S.I. units (second, meters, Newtons, ...)
If the header above contains a line with 'inDegrees', this indicates whether rotational values are in degrees (yes) or radians (no).

endheader
time	pelvis_tilt	pelvis_list	pelvis_rotation	pelvis_tx	pelvis_ty	pelvis_tz	hip_flexion_r	hip_adduction_r	hip_rotation_r	knee_angle_r	knee_angle_r_beta	ankle_angle_r	subtalar_angle_r	mtp_angle_r	hip_flexion_l	hip_adduction_l	hip_rotation_l	knee_angle_l	knee_angle_l_beta	ankle_angle_l	subtalar_angle_l	mtp_angle_l	lumbar_extension	lumbar_bending	lumbar_rotation	arm_flex_r	arm_add_r	arm_rot_r	elbow_flex_r	pro_sup_r	wrist_flex_r	wrist_dev_r	arm_flex_l	arm_add_l	arm_rot_l	elbow_flex_l	pro_sup_l	wrist_flex_l	wrist_dev_l
      5.05000000	    -73.38552195	     65.32484586	    -89.93998550	      0.82150621	      0.60424018	     -0.29560870	     44.99979432	     -9.99999986	      0.00000000	     59.99966523	      1.04719171	     -4.99999985	      0.00000000	      0.00000000	     44.99979432	     -9.99999986	      0.00000000	     59.99966523	      1.04719171	     -4.99999985	      0.00000000	      0.00000000	    -75.49428248	     87.87907404	     56.70456649	     -4.23265879	    -38.50775628	     31.84970291	    101.40322424	     87.06862702	      0.00000000	      0.00000000	      5.39824799	    -34.10337853	     43.65811920	     93.37572814	     89.12712354	      0.00000000	      0.00000000
      5.05500000	    -73.39123880	     65.34584106	    -89.93992440	      0.82148361	      0.60416114	     -0.29561855	     44.99979433	     -9.99999986	      0.00000000	     59.99966525	      1.04719171	     -4.99999985	      0.00000000	      0.00000000	     44.99979433	     -9.99999986	      0.00000000	     59.99966525	      1.04719171	     -4.99999985	      0.00000000	      0.00000000	    -75.49403132	     87.89144194	     56.70266258	     -4.21063123	    -38.47577344	     31.83957168	    101.39611263	     87.06705699	      0.00000000	      0.00000000	      5.38681833	    -34.10226252	     43.66398853	     93.37850832	     89.12687464	      0.00000000	      0.00000000
      5.06000000	    -73.38609462	     65.33597972	    -89.94035741	      0.82166438	      0.60418649	     -0.29565790	     44.99979450	     -9.99999986	      0.00000000	     59.99966555	      1.04719171	     -4.99999985	      0.00000000	      0.00000000	     44.99979450	     -9.99999986	      0.00000000	     59.99966555	      1.04719171	     -4.99999985	      0.00000000	      0.00000000	    -75.50169241	     87.88120284	     56.64300793	     -4.09902359	    -38.34166773	     31.76603187	    101.27196583	     87.04942767	      0.00000000	      0.00000000	      5.38324320	    -34.11941370	     43.60760700	     93.36928657	     89.23840527	      0.00000000	      0.00000000
      5.06500000	    -73.39179767	     65.35607126	    -89.94011313	      0.82163250	      0.60413902	     -0.29566281	     44.99979451	     -9.99999986	      0.00000000	     59.99966557	      1.04719171	     -4.99999985	      0.00000000	      0.00000000	     44.99979451	     -9.99999986	      0.00000000	     59.99966557	      1.04719171	     -4.99999985	      0.00000000	      0.00000000	    -75.50003466	     87.89287388	     56.64313833	     -4.07998762	    -38.31103814	     31.76382641	    101.27334449	     87.04907745	      0.00000000	      0.00000000	      5.37254568	    -34.11697469	     43.61527945	     93.37041580	     89.12674517	      0.00000000	      0.00000000
      5.07000000	    -73.39425619	     65.37767657	    -89.94000250	      0.82164672	      0.60405280	     -0.29565049	     44.99979452	     -9.99999986	      0.00000000	     59.99966559	      1.04719171	     -4.99999985	      0.00000000	      0.00000000	     44.99979452	     -9.99999986	      0.00000000	     59.99966559	      1.04719171	     -4.99999985	      0.00000000	      0.00000000	    -75.49868852	     87.90429329	     56.64309093	     -4.05352185	    -38.28045010	     31.75462722	    101.26831987	     87.04814475	      0.00000000	      0.00000000	      5.37146635	    -34.11630473	     43.61839975	     93.37438814	     89.12584400	      0.00000000	      0.00000000
